# xmcd CD database file
#
# Track frame offsets:
#	150
#	16693
#	37371
#	62622
#	84951
#	107245
#	126599
#	156228
#	179466
#	198524
#	218488
#	236672
#	256054
#	275356
#	292652
#
# Disc length: 4117 seconds
#
# Revision: 0
# Processed by: cddbd v1.5.2PL0 Copyright (c) Steve Scherf et al.
# Submitted via: Feurio! 1.68 - http://www.feurio.com
#
DISCID=d010130f
DTITLE=Snowy Whites' Blues Agency - The Masters
DYEAR=1998
DGENRE=
TTITLE0=The Agency Blues
TTITLE1=You Know It Ain't Right
TTITLE2=Woke Up This Morning
TTITLE3=Land Of Plenty
TTITLE4=Blues On Me
TTITLE5=I Want Your Love
TTITLE6=The Thrill Is Gone
TTITLE7=Change My Life
TTITLE8=Judgement Day
TTITLE9=Parchman Farm
TTITLE10=No Place To Go
TTITLE11=Can't Help Myself
TTITLE12=When You Broke Your Promise You Broke My Heart
TTITLE13=Out Of My Dreams
TTITLE14=Addicted Man
EXTD=
EXTT0=
EXTT1=
EXTT2=
EXTT3=
EXTT4=
EXTT5=
EXTT6=
EXTT7=
EXTT8=
EXTT9=
EXTT10=
EXTT11=
EXTT12=
EXTT13=
EXTT14=
PLAYORDER=
